<?xml version="1.0" encoding="UTF-8" standalone="no"?>
<!-- Created with Inkscape (http://www.inkscape.org/) -->

<svg
   xmlns:dc="http://purl.org/dc/elements/1.1/"
   xmlns:cc="http://creativecommons.org/ns#"
   xmlns:rdf="http://www.w3.org/1999/02/22-rdf-syntax-ns#"
   xmlns:svg="http://www.w3.org/2000/svg"
   xmlns="http://www.w3.org/2000/svg"
   xmlns:xlink="http://www.w3.org/1999/xlink"
   xmlns:sodipodi="http://sodipodi.sourceforge.net/DTD/sodipodi-0.dtd"
   xmlns:inkscape="http://www.inkscape.org/namespaces/inkscape"
   width="270.34332"
   height="228.01556"
   id="svg2"
   sodipodi:version="0.32"
   inkscape:version="0.47pre4 r22446"
   sodipodi:docname="logo.svg"
   inkscape:output_extension="org.inkscape.output.svg.inkscape"
   inkscape:export-filename="logo.png"
   inkscape:export-xdpi="149"
   inkscape:export-ydpi="149"
   version="1.0">
  <defs
     id="defs4">
    <inkscape:perspective
       sodipodi:type="inkscape:persp3d"
       inkscape:vp_x="0 : 114.00778 : 1"
       inkscape:vp_y="0 : 1000 : 0"
       inkscape:vp_z="270.34332 : 114.00778 : 1"
       inkscape:persp3d-origin="135.17166 : 76.005188 : 1"
       id="perspective30" />
    <linearGradient
       id="linearGradient3204">
      <stop
         style="stop-color:#ffffff;stop-opacity:1;"
         offset="0"
         id="stop3206" />
      <stop
         id="stop3214"
         offset="0.76999998"
         style="stop-color:#b3ffc0;stop-opacity:1;" />
      <stop
         style="stop-color:#58d258;stop-opacity:1;"
         offset="1"
         id="stop3208" />
    </linearGradient>
    <radialGradient
       inkscape:collect="always"
       xlink:href="#linearGradient3204"
       id="radialGradient3210"
       cx="144.17969"
       cy="253.58905"
       fx="144.17969"
       fy="253.58905"
       r="5.3437505"
       gradientTransform="matrix(1,0,0,0.743421,0,65.065613)"
       gradientUnits="userSpaceOnUse" />
    <radialGradient
       inkscape:collect="always"
       xlink:href="#linearGradient3204"
       id="radialGradient3220"
       gradientUnits="userSpaceOnUse"
       gradientTransform="matrix(1,0,0,0.743421,0,65.065613)"
       cx="144.17969"
       cy="253.58905"
       fx="144.17969"
       fy="253.58905"
       r="5.3437505" />
    <radialGradient
       inkscape:collect="always"
       xlink:href="#linearGradient3204"
       id="radialGradient3618"
       cx="313.37628"
       cy="263.67734"
       fx="313.37628"
       fy="263.67734"
       r="99.38044"
       gradientTransform="matrix(0.10949722,0,0,0.17254442,68.672498,434.98149)"
       gradientUnits="userSpaceOnUse" />
    <inkscape:perspective
       id="perspective3630"
       inkscape:persp3d-origin="0.5 : 0.33333333 : 1"
       inkscape:vp_z="1 : 0.5 : 1"
       inkscape:vp_y="0 : 1000 : 0"
       inkscape:vp_x="0 : 0.5 : 1"
       sodipodi:type="inkscape:persp3d" />
    <inkscape:perspective
       id="perspective3630-8"
       inkscape:persp3d-origin="0.5 : 0.33333333 : 1"
       inkscape:vp_z="1 : 0.5 : 1"
       inkscape:vp_y="0 : 1000 : 0"
       inkscape:vp_x="0 : 0.5 : 1"
       sodipodi:type="inkscape:persp3d" />
    <inkscape:perspective
       id="perspective3630-4"
       inkscape:persp3d-origin="0.5 : 0.33333333 : 1"
       inkscape:vp_z="1 : 0.5 : 1"
       inkscape:vp_y="0 : 1000 : 0"
       inkscape:vp_x="0 : 0.5 : 1"
       sodipodi:type="inkscape:persp3d" />
    <inkscape:perspective
       id="perspective3670"
       inkscape:persp3d-origin="0.5 : 0.33333333 : 1"
       inkscape:vp_z="1 : 0.5 : 1"
       inkscape:vp_y="0 : 1000 : 0"
       inkscape:vp_x="0 : 0.5 : 1"
       sodipodi:type="inkscape:persp3d" />
    <inkscape:perspective
       id="perspective3692"
       inkscape:persp3d-origin="0.5 : 0.33333333 : 1"
       inkscape:vp_z="1 : 0.5 : 1"
       inkscape:vp_y="0 : 1000 : 0"
       inkscape:vp_x="0 : 0.5 : 1"
       sodipodi:type="inkscape:persp3d" />
    <inkscape:perspective
       id="perspective3714"
       inkscape:persp3d-origin="0.5 : 0.33333333 : 1"
       inkscape:vp_z="1 : 0.5 : 1"
       inkscape:vp_y="0 : 1000 : 0"
       inkscape:vp_x="0 : 0.5 : 1"
       sodipodi:type="inkscape:persp3d" />
    <inkscape:perspective
       id="perspective3736"
       inkscape:persp3d-origin="0.5 : 0.33333333 : 1"
       inkscape:vp_z="1 : 0.5 : 1"
       inkscape:vp_y="0 : 1000 : 0"
       inkscape:vp_x="0 : 0.5 : 1"
       sodipodi:type="inkscape:persp3d" />
    <inkscape:perspective
       id="perspective3758"
       inkscape:persp3d-origin="0.5 : 0.33333333 : 1"
       inkscape:vp_z="1 : 0.5 : 1"
       inkscape:vp_y="0 : 1000 : 0"
       inkscape:vp_x="0 : 0.5 : 1"
       sodipodi:type="inkscape:persp3d" />
    <inkscape:perspective
       id="perspective3780"
       inkscape:persp3d-origin="0.5 : 0.33333333 : 1"
       inkscape:vp_z="1 : 0.5 : 1"
       inkscape:vp_y="0 : 1000 : 0"
       inkscape:vp_x="0 : 0.5 : 1"
       sodipodi:type="inkscape:persp3d" />
    <inkscape:perspective
       id="perspective3802"
       inkscape:persp3d-origin="0.5 : 0.33333333 : 1"
       inkscape:vp_z="1 : 0.5 : 1"
       inkscape:vp_y="0 : 1000 : 0"
       inkscape:vp_x="0 : 0.5 : 1"
       sodipodi:type="inkscape:persp3d" />
    <inkscape:perspective
       id="perspective3824"
       inkscape:persp3d-origin="0.5 : 0.33333333 : 1"
       inkscape:vp_z="1 : 0.5 : 1"
       inkscape:vp_y="0 : 1000 : 0"
       inkscape:vp_x="0 : 0.5 : 1"
       sodipodi:type="inkscape:persp3d" />
  </defs>
  <sodipodi:namedview
     id="base"
     pagecolor="#ffffff"
     bordercolor="#666666"
     borderopacity="0"
     inkscape:pageopacity="0"
     inkscape:pageshadow="2"
     inkscape:zoom="1.979899"
     inkscape:cx="141.78964"
     inkscape:cy="107.54578"
     inkscape:document-units="px"
     inkscape:current-layer="layer3"
     inkscape:window-width="1274"
     inkscape:window-height="745"
     inkscape:window-x="6"
     inkscape:window-y="0"
     showgrid="false"
     inkscape:window-maximized="0" />
  <metadata
     id="metadata7">
    <rdf:RDF>
      <cc:Work
         rdf:about="">
        <dc:format>image/svg+xml</dc:format>
        <dc:type
           rdf:resource="http://purl.org/dc/dcmitype/StillImage" />
        <dc:title></dc:title>
      </cc:Work>
    </rdf:RDF>
  </metadata>
  <g
     inkscape:groupmode="layer"
     id="layer3"
     inkscape:label="vector"
     style="opacity:1;display:inline"
     transform="translate(-290.60663,-76.68091)">
    <path
       sodipodi:type="arc"
       style="fill:#00c800;fill-opacity:1;fill-rule:evenodd;stroke:#000000;stroke-width:1.40652322999999990;stroke-linecap:round;stroke-miterlimit:4;stroke-opacity:0.16309013000000000;stroke-dasharray:none;stroke-dashoffset:0;display:inline"
       id="path5834-0-6-0-4-3-6-3-7"
       sodipodi:cx="446.73996"
       sodipodi:cy="224.79471"
       sodipodi:rx="41.668793"
       sodipodi:ry="42.678944"
       d="m 488.40875,224.79471 a 41.668793,42.678944 0 1 1 -83.33758,0 41.668793,42.678944 0 1 1 83.33758,0 z"
       transform="matrix(0.2042483,0,0,0.1639109,241.78715,219.11032)" />
    <path
       sodipodi:type="arc"
       style="fill:#00c300;fill-opacity:1;fill-rule:evenodd;stroke:#000000;stroke-width:1.40652322999999990;stroke-linecap:round;stroke-miterlimit:4;stroke-opacity:0.16309013000000000;stroke-dasharray:none;stroke-dashoffset:0;display:inline"
       id="path5834-0-6-0-4-3-6-3"
       sodipodi:cx="446.73996"
       sodipodi:cy="224.79471"
       sodipodi:rx="41.668793"
       sodipodi:ry="42.678944"
       d="m 488.40875,224.79471 a 41.668793,42.678944 0 1 1 -83.33758,0 41.668793,42.678944 0 1 1 83.33758,0 z"
       transform="matrix(0.28775399,0,0,0.23952296,210.54274,195.54713)" />
    <path
       sodipodi:type="arc"
       style="fill:#00be00;fill-opacity:1;fill-rule:evenodd;stroke:#000000;stroke-width:1.40652322999999990;stroke-linecap:round;stroke-miterlimit:4;stroke-opacity:0.16309013000000000;stroke-dasharray:none;stroke-dashoffset:0;display:inline"
       id="path5834-0-6-0-4-3-6"
       sodipodi:cx="446.73996"
       sodipodi:cy="224.79471"
       sodipodi:rx="41.668793"
       sodipodi:ry="42.678944"
       d="m 488.40875,224.79471 a 41.668793,42.678944 0 1 1 -83.33758,0 41.668793,42.678944 0 1 1 83.33758,0 z"
       transform="matrix(0.35955665,0,0,0.28004035,182.00117,180.8832)" />
    <path
       sodipodi:type="arc"
       style="fill:#00b400;fill-opacity:1;fill-rule:evenodd;stroke:#000000;stroke-width:1.40652322999999990;stroke-linecap:round;stroke-miterlimit:4;stroke-opacity:0.16309013000000000;stroke-dasharray:none;stroke-dashoffset:0;display:inline"
       id="path5834-0-6-0-4-3"
       sodipodi:cx="446.73996"
       sodipodi:cy="224.79471"
       sodipodi:rx="41.668793"
       sodipodi:ry="42.678944"
       d="m 488.40875,224.79471 a 41.668793,42.678944 0 1 1 -83.33758,0 41.668793,42.678944 0 1 1 83.33758,0 z"
       transform="matrix(0.49053332,0,0,0.42566847,130.30718,139.81301)" />
    <path
       sodipodi:type="arc"
       style="fill:#00fa00;fill-opacity:1;fill-rule:evenodd;stroke:#000000;stroke-width:1.40652322999999990;stroke-linecap:round;stroke-miterlimit:4;stroke-opacity:0.16309013000000000;stroke-dasharray:none;stroke-dashoffset:0;display:inline"
       id="path5834-0-6-0-4"
       sodipodi:cx="446.73996"
       sodipodi:cy="224.79471"
       sodipodi:rx="41.668793"
       sodipodi:ry="42.678944"
       d="m 488.40875,224.79471 a 41.668793,42.678944 0 1 1 -83.33758,0 41.668793,42.678944 0 1 1 83.33758,0 z"
       transform="matrix(1.1638876,0,0,1.1126712,-100.3015,-10.580951)" />
    <path
       sodipodi:type="arc"
       style="fill:#00dc00;fill-opacity:1;fill-rule:evenodd;stroke:#000000;stroke-width:1.40652322999999990;stroke-linecap:round;stroke-miterlimit:4;stroke-opacity:0.16309013000000000;stroke-dasharray:none;stroke-dashoffset:0;display:inline"
       id="path5834-0-6-0"
       sodipodi:cx="446.73996"
       sodipodi:cy="224.79471"
       sodipodi:rx="41.668793"
       sodipodi:ry="42.678944"
       d="m 488.40875,224.79471 a 41.668793,42.678944 0 1 1 -83.33758,0 41.668793,42.678944 0 1 1 83.33758,0 z"
       transform="matrix(1.4450361,0,0,1.2747392,-205.19363,-46.507919)" />
    <path
       sodipodi:type="arc"
       style="fill:#00c800;fill-opacity:1;fill-rule:evenodd;stroke:#000000;stroke-width:1.40652322999999990;stroke-linecap:round;stroke-miterlimit:4;stroke-opacity:0.16309013000000000;stroke-dasharray:none;stroke-dashoffset:0;display:inline"
       id="path5834-0-6"
       sodipodi:cx="446.73996"
       sodipodi:cy="224.79471"
       sodipodi:rx="41.668793"
       sodipodi:ry="42.678944"
       d="m 488.40875,224.79471 a 41.668793,42.678944 0 1 1 -83.33758,0 41.668793,42.678944 0 1 1 83.33758,0 z"
       transform="matrix(1.5938043,0,0,1.4495721,-256.50206,-94.648274)" />
    <path
       sodipodi:type="arc"
       style="fill:#00aa00;fill-opacity:1;fill-rule:evenodd;stroke:#000000;stroke-width:1.40652322999999990;stroke-linecap:round;stroke-miterlimit:4;stroke-opacity:0.16309013000000000;stroke-dasharray:none;stroke-dashoffset:0;display:inline"
       id="path5834-0"
       sodipodi:cx="446.73996"
       sodipodi:cy="224.79471"
       sodipodi:rx="41.668793"
       sodipodi:ry="42.678944"
       d="m 488.40875,224.79471 a 41.668793,42.678944 0 1 1 -83.33758,0 41.668793,42.678944 0 1 1 83.33758,0 z"
       transform="matrix(1.7428328,0,0,1.5950733,-326.10945,-145.53889)" />
    <path
       sodipodi:type="arc"
       style="fill:#009600;fill-opacity:1;fill-rule:evenodd;stroke:#000000;stroke-width:1.40652322999999990;stroke-linecap:round;stroke-miterlimit:4;stroke-opacity:0.16309013000000000;stroke-dasharray:none;stroke-dashoffset:0;display:inline"
       id="path5834-6"
       sodipodi:cx="446.73996"
       sodipodi:cy="224.79471"
       sodipodi:rx="41.668793"
       sodipodi:ry="42.678944"
       d="m 488.40875,224.79471 a 41.668793,42.678944 0 1 1 -83.33758,0 41.668793,42.678944 0 1 1 83.33758,0 z"
       transform="matrix(2.1803728,0,0,1.7559852,-542.03169,-193.83288)" />
    <path
       sodipodi:type="arc"
       style="opacity:1;fill:#007500;fill-opacity:1;fill-rule:evenodd;stroke:#000000;stroke-width:1.40652323;stroke-linecap:round;stroke-miterlimit:4;stroke-dasharray:none;stroke-dashoffset:0;stroke-opacity:0.16309013"
       id="path5834"
       sodipodi:cx="446.73996"
       sodipodi:cy="224.79471"
       sodipodi:rx="41.668793"
       sodipodi:ry="42.678944"
       d="m 488.40875,224.79471 c 0,23.57093 -18.65575,42.67894 -41.66879,42.67894 -23.01304,0 -41.66879,-19.10801 -41.66879,-42.67894 0,-23.57093 18.65575,-42.67895 41.66879,-42.67895 23.01304,0 41.66879,19.10802 41.66879,42.67895 z"
       transform="matrix(2.3349746,0,0,1.9483479,-625.42838,-247.78132)" />
    <path
       style="fill:#d01e1e;fill-opacity:1;fill-rule:evenodd;stroke:#000000;stroke-width:1px;stroke-linecap:butt;stroke-linejoin:miter;stroke-opacity:1"
       d="m 340.64686,260.46985 c 6.88316,1.25136 8.10128,2.88335 12.32712,2.6461 4.22584,-0.23724 11.4594,-2.34372 14.21097,-4.52867 -0.71417,6.08139 -2.59923,9.22021 -12.67573,17.01098 2.46031,-0.11607 10.1399,-2.95274 11.77824,-3.7444 4.1006,-1.73867 4.94304,-5.5 8.7551,-15.10465 0.5586,-1.40741 0.91964,-1.81008 1.67393,-2.44386 0.75429,-0.63378 1.24094,-1.10962 1.39392,-1.3699 1.22384,-2.08227 -5.9558,-1.61491 -7.72206,-2.13119 -4.58339,4.15524 -13.50918,8.09412 -29.74149,9.66559 z"
       id="path7133"
       sodipodi:nodetypes="cscccssccc" />
    <path
       sodipodi:type="arc"
       style="opacity:1;fill:#ffffff;fill-opacity:1;fill-rule:evenodd;stroke:#ffffff;stroke-width:7.880898;stroke-linecap:round;stroke-miterlimit:4;stroke-dasharray:none;stroke-dashoffset:0;stroke-opacity:0.16309013"
       id="path7079"
       sodipodi:cx="260.11429"
       sodipodi:cy="197.01552"
       sodipodi:rx="21.718279"
       sodipodi:ry="18.940361"
       d="m 281.83257,197.01552 c 0,10.46047 -9.72361,18.94036 -21.71828,18.94036 -11.99468,0 -21.71828,-8.47989 -21.71828,-18.94036 0,-10.46047 9.7236,-18.94036 21.71828,-18.94036 11.99467,0 21.71828,8.47989 21.71828,18.94036 z"
       transform="matrix(1.7198623,0,0,1.7987753,20.721833,-175.30132)" />
    <path
       sodipodi:type="arc"
       style="opacity:1;fill:#000000;fill-opacity:1;fill-rule:evenodd;stroke:#000000;stroke-width:0;stroke-linecap:round;stroke-miterlimit:4;stroke-dasharray:none;stroke-dashoffset:0;stroke-opacity:1"
       id="path7101"
       sodipodi:cx="235.61809"
       sodipodi:cy="179.84293"
       sodipodi:rx="0.25253814"
       sodipodi:ry="15.404826"
       d="m 235.87063,179.84293 c 0,8.50785 -0.11307,15.40482 -0.25254,15.40482 -0.13948,0 -0.25254,-6.89697 -0.25254,-15.40482 0,-8.50785 0.11306,-15.40483 0.25254,-15.40483 0.13947,0 0.25254,6.89698 0.25254,15.40483 z"
       transform="matrix(33.693831,8.7377133,-0.5035887,2.1534041,-7380.1107,-2266.7196)"
       inkscape:transform-center-x="-4.4804255"
       inkscape:transform-center-y="0.2737773" />
    <path
       sodipodi:type="arc"
       style="opacity:1;fill:#ffffff;fill-opacity:1;fill-rule:evenodd;stroke:#000000;stroke-width:0;stroke-linecap:round;stroke-miterlimit:4;stroke-dasharray:none;stroke-dashoffset:0;stroke-opacity:1"
       id="path7107"
       sodipodi:cx="235.61809"
       sodipodi:cy="179.84293"
       sodipodi:rx="0.25253814"
       sodipodi:ry="15.404826"
       d="m 235.87063,179.84293 c 0,8.50785 -0.11307,15.40482 -0.25254,15.40482 -0.13948,0 -0.25254,-6.89697 -0.25254,-15.40482 0,-8.50785 0.11306,-15.40483 0.25254,-15.40483 0.13947,0 0.25254,6.89698 0.25254,15.40483 z"
       transform="matrix(11.977189,-1.0053964,-6.248581e-2,0.5830152,-2335.8136,292.01137)"
       inkscape:transform-center-x="-1.5474803"
       inkscape:transform-center-y="-0.35455676" />
    <path
       sodipodi:type="arc"
       style="opacity:1;fill:#435400;fill-opacity:1;fill-rule:evenodd;stroke:#000000;stroke-width:0;stroke-linecap:round;stroke-miterlimit:4;stroke-dasharray:none;stroke-dashoffset:0;stroke-opacity:1"
       id="path7109"
       sodipodi:cx="225.76909"
       sodipodi:cy="236.91653"
       sodipodi:rx="5.5558391"
       sodipodi:ry="4.2931485"
       d="m 231.32493,236.91653 c 0,2.37104 -2.48744,4.29315 -5.55584,4.29315 -3.06841,0 -5.55584,-1.92211 -5.55584,-4.29315 0,-2.37104 2.48743,-4.29314 5.55584,-4.29314 3.0684,0 5.55584,1.9221 5.55584,4.29314 z"
       transform="translate(226.77925,-3.0304576)" />
    <path
       sodipodi:type="arc"
       style="opacity:1;fill:#435400;fill-opacity:1;fill-rule:evenodd;stroke:#000000;stroke-width:0;stroke-linecap:round;stroke-miterlimit:4;stroke-dasharray:none;stroke-dashoffset:0;stroke-opacity:1"
       id="path7111"
       sodipodi:cx="225.76909"
       sodipodi:cy="236.91653"
       sodipodi:rx="5.5558391"
       sodipodi:ry="4.2931485"
       d="m 231.32493,236.91653 c 0,2.37104 -2.48744,4.29315 -5.55584,4.29315 -3.06841,0 -5.55584,-1.92211 -5.55584,-4.29315 0,-2.37104 2.48743,-4.29314 5.55584,-4.29314 3.0684,0 5.55584,1.9221 5.55584,4.29314 z"
       transform="matrix(1.4090909,0,0,1.4117647,74.062556,-113.21123)" />
    <path
       sodipodi:type="arc"
       style="opacity:1;fill:#000000;fill-opacity:1;fill-rule:evenodd;stroke:#000000;stroke-width:0;stroke-linecap:round;stroke-miterlimit:4;stroke-dasharray:none;stroke-dashoffset:0;stroke-opacity:1"
       id="path7113"
       sodipodi:cx="171.47339"
       sodipodi:cy="159.38733"
       sodipodi:rx="40.153564"
       sodipodi:ry="40.406101"
       d="m 211.62695,159.38733 c 0,22.31567 -17.97736,40.4061 -40.15356,40.4061 -22.1762,0 -40.15357,-18.09043 -40.15357,-40.4061 0,-22.31567 17.97737,-40.4061 40.15357,-40.4061 22.1762,0 40.15356,18.09043 40.15356,40.4061 z"
       transform="matrix(1.7295597,0,0,1.6625,96.123332,-117.71594)" />
    <path
       style="opacity:1;fill:#000000;fill-opacity:1;fill-rule:evenodd;stroke:#000000;stroke-width:0;stroke-linecap:round;stroke-miterlimit:4;stroke-dasharray:none;stroke-dashoffset:0;stroke-opacity:1"
       d="M 423.3125,175.125 L 392.125,187.28125 L 435.46875,304.5 L 470.34375,304.5 L 471.0625,304.21875 L 423.3125,175.125 z "
       id="rect7125" />
    <path
       sodipodi:type="arc"
       style="opacity:1;fill:#298b29;fill-opacity:1;fill-rule:evenodd;stroke:#000000;stroke-width:0;stroke-linecap:round;stroke-miterlimit:4;stroke-dasharray:none;stroke-dashoffset:0;stroke-opacity:1"
       id="path7115"
       sodipodi:cx="171.47339"
       sodipodi:cy="159.38733"
       sodipodi:rx="40.153564"
       sodipodi:ry="40.406101"
       d="m 211.62695,159.38733 c 0,22.31567 -17.97736,40.4061 -40.15356,40.4061 -22.1762,0 -40.15357,-18.09043 -40.15357,-40.4061 0,-22.31567 17.97737,-40.4061 40.15357,-40.4061 22.1762,0 40.15356,18.09043 40.15356,40.4061 z"
       transform="matrix(1.6289308,0,0,1.56875,113.63106,-103.02591)" />
    <path
       sodipodi:type="arc"
       style="opacity:1;fill:#ffffff;fill-opacity:1;fill-rule:evenodd;stroke:#000000;stroke-width:0;stroke-linecap:round;stroke-miterlimit:4;stroke-dasharray:none;stroke-dashoffset:0;stroke-opacity:1"
       id="path7117"
       sodipodi:cx="171.47339"
       sodipodi:cy="159.38733"
       sodipodi:rx="40.153564"
       sodipodi:ry="40.406101"
       d="m 211.62695,159.38733 c 0,22.31567 -17.97736,40.4061 -40.15356,40.4061 -22.1762,0 -40.15357,-18.09043 -40.15357,-40.4061 0,-22.31567 17.97737,-40.4061 40.15357,-40.4061 22.1762,0 40.15356,18.09043 40.15356,40.4061 z"
       transform="matrix(1.3522012,0,0,1.325,161.9227,-65.106438)" />
    <path
       sodipodi:type="arc"
       style="opacity:1;fill:#000000;fill-opacity:1;fill-rule:evenodd;stroke:#000000;stroke-width:0;stroke-linecap:round;stroke-miterlimit:4;stroke-dasharray:none;stroke-dashoffset:0;stroke-opacity:1"
       id="path7119"
       sodipodi:cx="164.1498"
       sodipodi:cy="151.05357"
       sodipodi:rx="12.121831"
       sodipodi:ry="49.750011"
       d="m 176.27163,151.05357 c 0,27.47618 -5.42713,49.75002 -12.12183,49.75002 -6.69471,0 -12.12184,-22.27384 -12.12184,-49.75002 0,-27.47617 5.42713,-49.75001 12.12184,-49.75001 6.6947,0 12.12183,22.27384 12.12183,49.75001 z"
       transform="matrix(1.1666667,0,0,1.0558376,201.94633,-13.737765)" />
    <path
       sodipodi:type="arc"
       style="opacity:1;fill:#ffffff;fill-opacity:1;fill-rule:evenodd;stroke:#000000;stroke-width:0;stroke-linecap:round;stroke-miterlimit:4;stroke-dasharray:none;stroke-dashoffset:0;stroke-opacity:1"
       id="path7121"
       sodipodi:cx="160.61426"
       sodipodi:cy="122.7693"
       sodipodi:rx="3.0304577"
       sodipodi:ry="13.889598"
       d="m 163.64472,122.7693 c 0,7.67102 -1.35679,13.8896 -3.03046,13.8896 -1.67368,0 -3.03046,-6.21858 -3.03046,-13.8896 0,-7.67101 1.35678,-13.8896 3.03046,-13.8896 1.67367,0 3.03046,6.21859 3.03046,13.8896 z"
       transform="matrix(1.8333333,0,0,1,100.51018,-10.606602)" />
    <path
       style="fill:#000000;fill-opacity:1;fill-rule:evenodd;stroke:#000000;stroke-width:1px;stroke-linecap:butt;stroke-linejoin:miter;stroke-opacity:1"
       d="M 463.38634,131.52868 C 467.98033,126.10397 486.16558,112.46127 509.97963,127.7406 C 507.21403,130.7087 505.22276,131.84083 501.89841,133.23331 C 489.25566,120.60879 469.30568,128.85569 463.38634,131.52868 z "
       id="path7127"
       sodipodi:nodetypes="cccc" />
    <path
       style="fill:#ffffff;fill-opacity:1;stroke:#000000;stroke-width:1px;stroke-linecap:butt;stroke-linejoin:miter;stroke-opacity:1"
       d="m 361.31731,252.16854 c 5.0576,-9.45019 6.89277,-17.70905 10.6066,-10.6066 3.47268,6.64126 8.71815,10.69759 15.65737,13.13199 11.49205,3.69113 -9.92134,6.37998 -11.11168,8.5863 -1.91763,-0.96951 2.79014,-6.08537 2.52538,-5.55585 -0.0712,0.0712 -8.13302,-6.66959 -8.08122,-6.56598 -1.43903,-1.55859 -3.61124,-3.25775 -9.59645,1.01014 z"
       id="path3620"
       sodipodi:nodetypes="csccccc" />
  </g>
  <g
     inkscape:label="fondo"
     inkscape:groupmode="layer"
     id="layer1"
     transform="translate(-290.60663,-76.68091)"
     style="display:inline">
    <text
       xml:space="preserve"
       style="font-size:45.34301758px;font-style:italic;font-variant:normal;font-weight:normal;font-stretch:normal;text-align:start;line-height:125%;writing-mode:lr-tb;text-anchor:start;fill:url(#radialGradient3618);fill-opacity:1;stroke:none;font-family:BABEL Unicode;-inkscape-font-specification:BABEL Unicode Italic"
       x="88.650581"
       y="496.98297"
       id="text2836"
       transform="matrix(1.3873913,-0.17173988,0.63680852,0.64194906,0,0)"
       sodipodi:linespacing="125%"><tspan
         sodipodi:role="line"
         id="tspan2838"
         x="88.650581"
         y="496.98297"
         style="font-size:45.34301758px;font-style:italic;font-variant:normal;font-weight:normal;font-stretch:normal;text-align:start;line-height:125%;writing-mode:lr-tb;text-anchor:start;fill:url(#radialGradient3618);fill-opacity:1;font-family:BABEL Unicode;-inkscape-font-specification:BABEL Unicode Italic">3</tspan></text>
  </g>
</svg>
